<svg width="61" height="53" viewBox="0 0 61 53" fill="none" xmlns="http://www.w3.org/2000/svg">
<path fill-rule="evenodd" clip-rule="evenodd" d="M28.9631 0.378876V38.9581C28.9631 39.519 28.6894 40.0479 28.2228 40.3888L12.1284 52.146C11.3771 52.6948 10.3162 52.6277 9.64728 51.9891L0.552747 43.307C-0.0854004 42.6978 -0.182395 41.7426 0.321313 41.0277L28.9631 0.378876ZM26.2483 35.3299V11.4244L8.26382 36.4989C7.74706 37.2194 7.84593 38.1899 8.49841 38.8018L13.4807 43.4744C14.1466 44.099 15.1909 44.1648 15.9371 43.6293L25.4952 36.7699C25.9694 36.4296 26.2483 35.8962 26.2483 35.3299Z" fill="white"/>
<path fill-rule="evenodd" clip-rule="evenodd" d="M31.8254 0.378845V38.958C31.8254 39.519 32.0991 40.0479 32.5657 40.3887L48.6601 52.1459C49.4114 52.6948 50.4723 52.6277 51.1413 51.9891L60.2358 43.307C60.874 42.6978 60.971 41.7425 60.4673 41.0277L31.8254 0.378845ZM34.5402 35.3299V11.4244L52.5248 36.4989C53.0415 37.2194 52.9426 38.1899 52.2902 38.8018L47.3079 43.4744C46.6419 44.099 45.5977 44.1648 44.8515 43.6293L35.2934 36.7699C34.8192 36.4296 34.5402 35.8962 34.5402 35.3299Z" fill="white"/>
</svg>
